<svg xmlns="http://www.w3.org/2000/svg" viewBox="0 0 425.41 131.39"><title>Asset 1riby logo</title><g id="Layer_2" data-name="Layer 2"><g id="Layer_1-2" data-name="Layer 1"><path d="M106.11,13.48,74.3,41.35A18,18,0,0,0,57.48,29.69H30.64V79.6L5.41,101.71A52.83,52.83,0,0,1,0,78.33V13.48A111.17,111.17,0,0,1,106.11,13.48Z" style="fill:#e32525"/><path d="M106.11,13.48V78.33A53.06,53.06,0,0,1,8,106.3l0,0a51.78,51.78,0,0,1-2.52-4.56L30.64,79.6v22.19H79.48L59.15,68.31A18,18,0,0,0,75.44,50.42V47.65a17.78,17.78,0,0,0-1.14-6.3Z" style="fill:#0c223d"/><path d="M142.05,29.71H169.9a49.14,49.14,0,0,1,10.42,1.07A24.74,24.74,0,0,1,189,34.34a17.76,17.76,0,0,1,5.9,6.71A22.73,22.73,0,0,1,197,51.57a21.12,21.12,0,0,1-4,13q-4,5.34-11.59,6.76l18.29,30.39h-19l-15-28.76h-7.83v28.76H142.05Zm15.86,29.78h9.35q2.13,0,4.52-.15a14.18,14.18,0,0,0,4.32-.91A7.48,7.48,0,0,0,179.3,56a7.27,7.27,0,0,0,1.27-4.57,7.6,7.6,0,0,0-1.12-4.37,7.48,7.48,0,0,0-2.85-2.49,12.68,12.68,0,0,0-4-1.17,32.37,32.37,0,0,0-4.37-.3H157.91Z" style="fill:#0c223d"/><path d="M228,29.71h15.86v72H228Z" style="fill:#0c223d"/><path d="M278.65,29.71h26.83a68,68,0,0,1,9.4.66A25.71,25.71,0,0,1,323.37,33a16.28,16.28,0,0,1,6.1,5.54q2.34,3.56,2.34,9.45a15.09,15.09,0,0,1-3.41,10.11,18.72,18.72,0,0,1-9,5.74v.2a20.59,20.59,0,0,1,6.45,2,17.26,17.26,0,0,1,5,3.76,16.06,16.06,0,0,1,3.2,5.34,18.77,18.77,0,0,1,1.12,6.5,17.29,17.29,0,0,1-2.44,9.5,19.17,19.17,0,0,1-6.3,6.15,27.59,27.59,0,0,1-8.69,3.35,46.48,46.48,0,0,1-9.6,1H278.65Zm15.86,28.76H306a16.1,16.1,0,0,0,3.61-.41,10,10,0,0,0,3.2-1.32,6.88,6.88,0,0,0,2.29-2.44,7.31,7.31,0,0,0,.86-3.66,6.65,6.65,0,0,0-1-3.71,6.74,6.74,0,0,0-2.49-2.29A11.92,11.92,0,0,0,309,43.48a20.78,20.78,0,0,0-3.76-.36H294.51Zm0,29.78h14.23a17.51,17.51,0,0,0,3.71-.41,9.8,9.8,0,0,0,3.4-1.42,8.09,8.09,0,0,0,2.49-2.64,7.64,7.64,0,0,0,1-4A6.36,6.36,0,0,0,318,75.7a8.08,8.08,0,0,0-3.2-2.39,16.45,16.45,0,0,0-4.17-1.12,31,31,0,0,0-4.17-.3h-12Z" style="fill:#0c223d"/><path d="M382.52,71l-27-41.26h19.72l15.25,26.93,16.16-26.93h18.8L398.38,71v30.69H382.52Z" style="fill:#0c223d"/></g></g></svg>